<svg width="22" height="24" viewBox="0 0 22 24" fill="none" xmlns="http://www.w3.org/2000/svg">
    <path d="M7.2 10.8H4.8V13.2H7.2V10.8ZM12 10.8H9.6V13.2H12V10.8ZM16.8 10.8H14.4V13.2H16.8V10.8ZM19.2 2.4H18V0H15.6V2.4H6V0H3.6V2.4H2.4C1.068 2.4 0 3.48 0 4.8V21.6C0 22.2365 0.252856 22.847 0.702944 23.2971C1.15303 23.7471 1.76348 24 2.4 24H19.2C19.8365 24 20.447 23.7471 20.8971 23.2971C21.3471 22.847 21.6 22.2365 21.6 21.6V4.8C21.6 4.16348 21.3471 3.55303 20.8971 3.10294C20.447 2.65286 19.8365 2.4 19.2 2.4ZM19.2 21.6H2.4V8.4H19.2V21.6Z" fill="white"/>
    </svg>
    